<?xml version="1.0" encoding="UTF-8" standalone="no"?>
<!-- Generator: Adobe Illustrator 12.0.0, SVG Export Plug-In . SVG Version: 6.00 Build 51448)  -->
<svg
   xmlns:dc="http://purl.org/dc/elements/1.1/"
   xmlns:cc="http://web.resource.org/cc/"
   xmlns:rdf="http://www.w3.org/1999/02/22-rdf-syntax-ns#"
   xmlns:svg="http://www.w3.org/2000/svg"
   xmlns="http://www.w3.org/2000/svg"
   xmlns:sodipodi="http://sodipodi.sourceforge.net/DTD/sodipodi-0.dtd"
   xmlns:inkscape="http://www.inkscape.org/namespaces/inkscape"
   version="1.1"
   id="Layer_1"
   width="595.275"
   height="841.891"
   viewBox="0 0 595.275 841.891"
   overflow="visible"
   enable-background="new 0 0 595.275 841.891"
   xml:space="preserve"
   sodipodi:version="0.32"
   inkscape:version="0.45.1"
   sodipodi:docname="Rib cage anterior.svg"
   inkscape:output_extension="org.inkscape.output.svg.inkscape"
   sodipodi:docbase="C:\Users\Mikael\Pictures\Internet\Wikipedia\Drag-n-drop of svg"><metadata
   id="metadata828"><rdf:RDF><cc:Work
       rdf:about=""><dc:format>image/svg+xml</dc:format><dc:type
         rdf:resource="http://purl.org/dc/dcmitype/StillImage" /></cc:Work></rdf:RDF></metadata><defs
   id="defs826" /><sodipodi:namedview
   inkscape:window-height="718"
   inkscape:window-width="1008"
   inkscape:pageshadow="2"
   inkscape:pageopacity="0.0"
   guidetolerance="10.0"
   gridtolerance="10.0"
   objecttolerance="10.0"
   borderopacity="1.0"
   bordercolor="#666666"
   pagecolor="#ffffff"
   id="base"
   inkscape:zoom="1"
   inkscape:cx="297.63751"
   inkscape:cy="624.98818"
   inkscape:window-x="0"
   inkscape:window-y="14"
   inkscape:current-layer="Layer_1" />

<linearGradient
   id="XMLID_43_"
   gradientUnits="userSpaceOnUse"
   x1="284.7703"
   y1="614.6003"
   x2="278.3187"
   y2="569.706"
   gradientTransform="matrix(1 0 0 -1 -0.0552 840.1929)">
	<stop
   offset="0.0056"
   style="stop-color:#93D9F8"
   id="stop6" />
	<stop
   offset="1"
   style="stop-color:#FFFFFF"
   id="stop8" />
</linearGradient>



<linearGradient
   id="XMLID_45_"
   gradientUnits="userSpaceOnUse"
   x1="333.4592"
   y1="304.0188"
   x2="338.4594"
   y2="278.4183"
   gradientTransform="matrix(0.9997 -0.0238 -0.0238 -0.9997 1.2931 847.4858)">
	<stop
   offset="0.0056"
   style="stop-color:#8CC63F"
   id="stop56" />
	<stop
   offset="0.0762"
   style="stop-color:#AFD136"
   id="stop58" />
	<stop
   offset="0.161"
   style="stop-color:#CEDC28"
   id="stop60" />
	<stop
   offset="0.248"
   style="stop-color:#E6E515"
   id="stop62" />
	<stop
   offset="0.3368"
   style="stop-color:#F7EC00"
   id="stop64" />
	<stop
   offset="0.4286"
   style="stop-color:#FFF000"
   id="stop66" />
	<stop
   offset="0.5281"
   style="stop-color:#FFF200"
   id="stop68" />
	<stop
   offset="0.816"
   style="stop-color:#DFE21D"
   id="stop70" />
	<stop
   offset="1"
   style="stop-color:#CADB2A"
   id="stop72" />
</linearGradient>







<linearGradient
   id="XMLID_47_"
   gradientUnits="userSpaceOnUse"
   x1="251.9622"
   y1="675.5437"
   x2="259.2551"
   y2="639.869"
   gradientTransform="matrix(1 0 0 -1 -0.0552 840.1929)">
	<stop
   offset="0"
   style="stop-color:#F9B49B"
   id="stop130" />
	<stop
   offset="0.2246"
   style="stop-color:#FAB69E"
   id="stop132" />
	<stop
   offset="0.4321"
   style="stop-color:#FBC0AA"
   id="stop134" />
	<stop
   offset="0.6329"
   style="stop-color:#FCCEBC"
   id="stop136" />
	<stop
   offset="0.8283"
   style="stop-color:#FDE3D7"
   id="stop138" />
	<stop
   offset="1"
   style="stop-color:#FFFFFF"
   id="stop140" />
</linearGradient>























































































<g
   id="layer1"
   inkscape:label="Layer 1"
   transform="matrix(0.7311588,0,0,0.6175766,36.997488,-53.453562)"><path
     id="path5207"
     d="M 442,154.36218 C 442.34399,153.6742 452.79509,155.36218 457,155.36218 C 463.59151,155.36218 466.81446,157.26941 471,159.36218 C 475.13595,161.43016 474,165.44544 474,171.36218 C 474,175.68217 466.8297,179.23991 464,181.36218 C 460.68444,183.84885 457.47725,186.75425 454,189.36218 C 448.85897,193.21795 449.83624,195.99493 443,197.36218 C 436.73333,198.61552 431.03719,198.10289 426,199.36218 C 421.64699,200.45043 416.07768,203.32334 412,205.36218 C 407.7297,207.49733 404.08394,208.36218 402,208.36218 C 397.65387,208.36218 401.94591,199.57855 403,195.36218 C 404.28414,190.22562 404.21033,185.20352 403,180.36218 C 402.45918,178.1989 414.23775,177.55275 415,177.36218 C 420.05718,176.09789 425.15186,176.57422 430,175.36218 C 433.90381,174.38623 435.75748,170.98344 439,169.36218 C 442.91875,167.40281 442.99264,159.32536 442,154.36218 z "
     style="opacity:0.6;fill:#6c5353;fill-rule:evenodd;stroke:#000000;stroke-width:1px;stroke-linecap:butt;stroke-linejoin:miter;stroke-opacity:1" /><path
     id="path5209"
     d="M 496,193.36218 C 498.3123,192.20603 506.30393,197.66611 508,199.36218 C 511.36544,202.72762 514,201.10402 514,208.36218 C 514,212.53762 511.33322,218.25122 509,221.36218 C 505.50548,226.02154 502.04718,227.315 499,230.36218 C 494.36703,234.99515 491.0846,238.31988 485,241.36218 C 480.25735,243.73351 476.68065,246.68153 473,250.36218 C 469.57291,253.78928 460.76653,254.40888 456,255.36218 C 455.34628,255.49293 454.66667,255.36218 454,255.36218 C 448.58197,255.36218 441.94259,257.89089 439,259.36218 C 435.2057,261.25933 431.05881,264.36218 425,264.36218 C 419.69146,264.36218 414.90159,264.3425 410,263.36218 C 404.93372,262.34893 402.12704,261.36218 396,261.36218 C 393.28174,261.36218 387.47682,258.23139 384,257.36218 C 378.51741,255.99153 377.55963,254.48143 375,249.36218 C 372.16254,243.68727 376.46057,239.24704 380,238.36218 C 384.63289,237.20396 390.88669,240.58386 394,241.36218 C 400.13357,242.89557 403.93103,243.36218 410,243.36218 C 415.4925,243.36218 421.75456,241.67354 427,240.36218 C 432.43076,239.00449 436.47649,238.36218 442,238.36218 C 445.56977,238.36218 452.23269,235.74584 455,234.36218 C 460.29306,231.71565 462.00087,232.36132 467,227.36218 C 470.53817,223.82401 474.79535,220.46451 479,218.36218 C 484.45435,215.63501 488.0843,213.82003 493,211.36218 C 497.88738,208.91849 497.86817,201.83487 497,198.36218 C 496.58777,196.71326 496.33333,195.02885 496,193.36218 z "
     style="opacity:0.6;fill:#6c5353;fill-rule:evenodd;stroke:#000000;stroke-width:1px;stroke-linecap:butt;stroke-linejoin:miter;stroke-opacity:1" /><path
     id="path5211"
     d="M 522,238.36218 C 519.8862,229.90699 531.69214,234.20825 534,235.36218 C 537.31317,237.01877 537.98825,243.31518 539,247.36218 C 540.09016,251.72284 539,257.84072 539,262.36218 C 539,267.99913 534.28276,271.07942 531,274.36218 C 528.56069,276.80149 525.46416,285.43386 524,288.36218 C 521.82182,292.71854 515.25803,296.16866 511,299.36218 C 506.76844,302.53585 501.35931,303.36218 496,303.36218 C 491.07263,303.36218 484.68738,305.44034 481,306.36218 C 476.47979,307.49223 472.14037,309.32709 468,310.36218 C 462.76154,311.6718 457.93241,310.39598 454,312.36218 C 450.26366,314.23035 443.45456,313.36218 439,313.36218 C 434.66243,313.36218 430.7477,311.36218 425,311.36218 C 420.33333,311.36218 415.66667,311.36218 411,311.36218 C 406.69069,311.36218 401.50736,308.26366 397,307.36218 C 394.86092,306.93437 390.03234,301.37835 388,300.36218 C 381.89856,297.31146 381.18614,297.10676 380,292.36218 C 378.44561,286.14461 378.87237,281.36218 385,281.36218 C 390.21502,281.36218 395.44777,283.44801 398,285.36218 C 401.32242,287.854 409.79593,286.56117 413,287.36218 C 418.26311,288.67796 422.49189,290.10813 427,292.36218 C 431.36116,294.54276 437.84991,293.3997 442,292.36218 C 447.07378,291.09374 452.18382,291.56623 457,290.36218 C 461.87341,289.14383 466.98233,290.3666 471,289.36218 C 476.55454,287.97355 479.60025,287.46212 484,286.36218 C 490.24753,284.8003 491.77188,283.97624 497,281.36218 C 502.2171,278.75363 504.1478,275.78828 509,273.36218 C 513.73752,270.99342 517.70909,267.65309 521,264.36218 C 524.78962,260.57256 527.02627,256.25709 528,252.36218 C 529.1919,247.5946 523.7437,242.72143 522,238.36218 z "
     style="opacity:0.6;fill:#6c5353;fill-rule:evenodd;stroke:#000000;stroke-width:1px;stroke-linecap:butt;stroke-linejoin:miter;stroke-opacity:1" /><path
     id="path5217"
     d="M 543,301.36218 C 543.68625,301.53375 549.00176,287.36923 552,299.36218 C 552.99897,303.35808 550,308.98815 550,314.36218 C 550,321.12455 548.97879,323.4046 547,327.36218 C 544.6355,332.09118 537.14982,337.99982 534,340.36218 C 530.98448,342.62382 524.75703,346.17293 520,347.36218 C 514.99489,348.61346 509.98798,350.11519 505,351.36218 C 500.1743,352.56861 494.30531,357.20953 490,359.36218 C 485.30008,361.71214 480.93351,363.36218 475,363.36218 C 470.51291,363.36218 465.07842,364.36218 460,364.36218 C 454.38348,364.36218 449.62572,364.67504 445,362.36218 C 440.43831,360.08134 435.20911,361.41446 431,360.36218 C 426.10816,359.13922 420.87266,358.58035 416,357.36218 C 411.72873,356.29436 408.0004,353.61248 405,351.36218 C 401.0212,348.37808 398.16738,347.40403 394,346.36218 C 387.02818,344.61923 386.87511,346.86261 385,339.36218 C 383.05915,331.59879 384.925,331.43718 387,329.36218 C 387.41243,328.94975 398.33148,332.94505 400,333.36218 C 403.33944,334.19704 409.53182,337.12809 412,338.36218 C 416.88622,340.80529 418.77816,342.25126 423,344.36218 C 425.43089,345.57763 436.19853,342.81255 438,342.36218 C 442.36066,341.27202 448.47854,342.36218 453,342.36218 C 456.37554,342.36218 462.17786,341.36218 467,341.36218 C 472,341.36218 477,341.36218 482,341.36218 C 487.77825,341.36218 491.82752,340.44842 496,338.36218 C 500.9243,335.90003 505.65438,337.03499 511,334.36218 C 515.28707,332.21865 519.56147,330.47182 524,329.36218 C 528.09203,328.33917 532.53713,325.82506 535,323.36218 C 538.16501,320.19717 539.59232,316.76986 543,313.36218 C 543.77104,312.59114 543,301.51465 543,301.36218 z "
     style="opacity:0.6;fill:#6c5353;fill-rule:evenodd;stroke:#000000;stroke-width:1px;stroke-linecap:butt;stroke-linejoin:miter;stroke-opacity:1" /><path
     id="path5219"
     d="M 551,363.36218 C 553.34628,361.0159 554.98847,352.38524 557,348.36218 C 559.60563,343.15092 563.03461,349.50063 564,353.36218 C 565.07826,357.67522 563.71065,364.51958 563,367.36218 C 561.65859,372.72782 559.2684,375.28856 558,380.36218 C 556.54201,386.19415 552.32713,388.70793 550,393.36218 C 548.15101,397.06016 545.11637,402.33309 541,403.36218 C 536.428,404.50518 533.77866,408.47285 530,410.36218 C 524.53565,413.09436 521.00553,416.3608 517,417.36218 C 513.20271,418.31151 508.97588,420.37424 505,422.36218 C 499.90473,424.90982 494.89009,425.91714 490,428.36218 C 486.42849,430.14794 480.44887,430.2244 477,429.36218 C 473.88423,428.58324 465.8641,430.36218 462,430.36218 C 459.13382,430.36218 451.39364,425.71964 448,424.36218 C 441.69673,421.84088 439.6487,419.77436 434,418.36218 C 429.59896,417.26192 426.49271,414.48536 422,413.36218 C 419.22695,412.66892 414.47748,406.2203 412,404.36218 C 407.14021,400.71734 406.14249,396.46905 402,393.36218 C 397.43571,389.93897 396.72946,385.72691 392,383.36218 C 387.55482,381.13959 383.52278,376.40775 382,373.36218 C 379.26796,367.8981 379.64954,365.71264 383,362.36218 C 386.76677,358.59541 391.24114,364.60332 393,366.36218 C 395.96654,369.32872 400.31469,373.67687 403,376.36218 C 405.126,378.48818 411.32182,381.52309 415,383.36218 C 420.00113,385.86275 420.74759,388.23598 425,390.36218 C 429.04764,392.386 431.41572,394.67397 435,397.36218 C 436.69201,398.63119 439.00957,404.86457 445,406.36218 C 449.31026,407.43975 452.02594,409.36218 458,409.36218 C 463.50577,409.36218 469.21225,408.36218 475,408.36218 C 478.85786,408.36218 484.2323,407.30411 488,406.36218 C 492.20768,405.31026 498.46625,403.01249 502,400.36218 C 503.74883,399.05056 516.66047,398.19707 520,397.36218 C 526.39093,395.76445 527.06889,392.84496 533,391.36218 C 534.70389,390.93621 540.1513,382.21088 542,380.36218 C 546.28743,376.07475 545.81882,373.54336 550,369.36218 C 551.43372,367.92846 550.66667,365.36218 551,363.36218 z "
     style="opacity:0.6;fill:#6c5353;fill-rule:evenodd;stroke:#000000;stroke-width:1px;stroke-linecap:butt;stroke-linejoin:miter;stroke-opacity:1" /><path
     id="path5221"
     d="M 555,410.36218 C 556.41076,408.95142 559.64612,401.06994 561,398.36218 C 562.96073,394.44073 561.93665,407.10877 563,411.36218 C 564.55107,417.56647 563.29515,420.77188 561,425.36218 C 558.93048,429.50123 557.08583,435.01886 556,439.36218 C 554.95719,443.53344 550.76658,449.67341 548,453.36218 C 544.22591,458.39431 541.27086,459.09132 538,462.36218 C 534.98562,465.37656 529.44451,468.91768 526,472.36218 C 522.32608,476.0361 517.88806,478.39017 514,479.36218 C 508.91354,480.6338 504.73838,481.17759 500,482.36218 C 494.89552,483.6383 490.19308,483.31391 486,484.36218 C 480.57357,485.71879 476.92453,482.34331 473,481.36218 C 468.92446,480.3433 464.35327,474.4505 460,473.36218 C 455.23873,472.17186 452.85613,471.21831 450,468.36218 C 446.5816,464.94378 445.30676,463.01557 440,460.36218 C 435.80787,458.26612 431.4896,455.85178 428,452.36218 C 423.97056,448.33275 419.30691,446.66909 416,443.36218 C 412.72954,440.09173 409.27486,437.63705 405,433.36218 C 402.25845,430.62063 398.50028,426.11232 395,424.36218 C 389.21449,421.46943 386.7738,422.45739 385,415.36218 C 384.16237,412.01167 379.73817,409.83853 378,406.36218 C 375.21432,400.79083 378.08134,397.1995 380,393.36218 C 383.31544,386.7313 388.3773,395.39515 391,397.36218 C 395.6602,400.85733 399.19811,403.51076 403,406.36218 C 406.40307,408.91448 406.74163,413.10382 410,416.36218 C 413.11516,419.47735 418.4286,419.57648 422,421.36218 C 426.26659,423.49548 430.05984,423.33226 434,421.36218 C 437.32068,419.70184 443.01697,425.37067 445,426.36218 C 449.53069,428.62753 455.92366,431.3431 460,432.36218 C 464.31444,433.44079 461.01114,441.38447 463,445.36218 C 465.00718,449.37654 472.93156,450.31085 477,453.36218 C 480.54961,456.02439 483.01089,458.37307 486,461.36218 C 487.90546,463.26764 499.07658,460.84304 501,460.36218 C 506.82691,458.90546 509.74479,456.61739 514,452.36218 C 516.30563,450.05655 523.63253,448.36218 528,448.36218 C 532.89493,448.36218 538.40487,443.15975 542,441.36218 C 546.40719,439.15859 547.62988,434.31238 550,430.36218 C 553.29739,424.86654 557.02382,423.31454 559,419.36218 C 560.63846,416.08526 556.24299,411.91592 555,410.36218 z "
     style="opacity:0.6;fill:#6c5353;fill-rule:evenodd;stroke:#000000;stroke-width:1px;stroke-linecap:butt;stroke-linejoin:miter;stroke-opacity:1" /><path
     id="path5223"
     d="M 551,460.36218 C 553.00618,456.34983 552.4019,448.71266 559,450.36218 C 563.75093,451.54992 560.67966,458.64352 560,461.36218 C 558.79611,466.17774 558.06896,471.08636 557,475.36218 C 555.57993,481.04247 555.15192,484.05835 553,488.36218 C 550.60799,493.1462 547.76025,494.84169 545,500.36218 C 542.37871,505.60476 542.90913,507.54393 541,511.36218 C 539.24602,514.87015 534.64349,517.71869 532,520.36218 C 528.08426,524.27792 525.28904,527.07314 522,530.36218 C 518.64591,533.71627 514.6706,535.19453 510,536.36218 C 505.36619,537.52063 501.55853,538.36218 496,538.36218 C 489.25701,538.36218 487.05475,536.41693 483,532.36218 C 479.05466,528.41685 477.14244,523.50462 474,520.36218 C 469.8386,516.20079 466.97364,514.33583 464,511.36218 C 460.90349,508.26568 455.93066,506.34485 452,505.36218 C 448.39878,504.46188 443.24621,498.60839 441,496.36218 C 436.93388,492.29606 432.07263,489.45903 429,485.36218 C 426.92347,482.59348 423.87876,479.30156 420,477.36218 C 416.32528,475.52482 413.12903,471.20089 411,468.36218 C 407.49479,463.68857 404.46585,462.82803 401,459.36218 C 397.2114,455.57358 396.64168,453.00386 393,449.36218 C 388.68394,445.04612 388.32272,441.60422 384,438.36218 C 379.8839,435.27511 376.48814,431.85032 374,429.36218 C 370.54375,425.90594 367.96765,419.23277 367,415.36218 C 365.62069,409.84493 363.45689,410.4484 367,403.36218 C 368.96252,399.43715 376.43979,402.80197 379,405.36218 C 382.26902,408.63121 386.38706,415.13631 388,418.36218 C 389.70478,421.77174 397.85187,426.21406 401,429.36218 C 403.78488,432.14706 405.52224,435.40666 407,438.36218 C 408.87375,442.10969 412.70486,445.06704 416,448.36218 C 420.80819,453.17037 424.9196,454.28179 429,458.36218 C 433.01399,462.37618 435.08247,464.1328 440,465.36218 C 443.89948,466.33705 447.58098,471.52414 449,474.36218 C 451.70321,479.7686 456.50415,474.98615 459,474.36218 C 461.81129,473.65936 468.85243,481.50151 470,482.36218 C 473.34419,484.87033 478.77956,484.36218 484,484.36218 C 490.2647,484.36218 490.34391,486.98653 489,492.36218 C 487.77209,497.27383 486.81217,499.61084 488,504.36218 C 489.51272,510.41306 495.67617,513.03836 498,515.36218 C 501.64834,519.01052 508.5387,514.22751 512,513.36218 C 517.33272,512.029 520.71784,511.00327 524,509.36218 C 527.01485,507.85476 530.66217,503.47928 533,500.36218 C 537.04733,494.96574 541.43991,490.48236 544,485.36218 C 546.57268,480.21682 549.70051,477.56014 551,472.36218 C 552.55604,466.13801 555.70358,468.20148 551,460.36218 z "
     style="opacity:0.6;fill:#6c5353;fill-rule:evenodd;stroke:#000000;stroke-width:1px;stroke-linecap:butt;stroke-linejoin:miter;stroke-opacity:1" /><path
     id="path5225"
     d="M 546,514.36218 C 547.25941,509.32456 550.35908,503.95195 556,505.36218 C 558.14746,505.89905 557,517.31002 557,519.36218 C 557,525.27471 556.30633,530.13688 555,535.36218 C 553.50512,541.34172 547.82646,544.53572 545,547.36218 C 542.61675,549.74543 540.07376,554.28843 537,557.36218 C 532.92426,561.43792 528.79414,562.76658 524,566.36218 C 519.08877,570.0456 514.60747,570.76405 509,569.36218 C 504.28053,568.18231 498.10132,568.36218 494,568.36218 C 486.54027,568.36218 486.37156,566.73374 483,563.36218 C 478.79735,559.15953 475.23228,554.29132 474,549.36218 C 472.92192,545.04988 468.30955,542.98128 466,538.36218 C 463.80279,533.96777 456.54664,530.45547 454,525.36218 C 451.6821,520.72637 449.96241,516.287 448,512.36218 C 445.85739,508.07697 442.49027,504.85246 440,502.36218 C 436.87397,499.23616 435.77939,496.92095 434,493.36218 C 429.51857,484.39932 441.28195,491.50316 443,492.36218 C 447.93184,494.8281 450.68371,497.04589 454,500.36218 C 457.60088,503.96306 462.20126,507.56344 466,511.36218 C 469.24569,514.60787 472.36677,518.72895 475,521.36218 C 477.32028,523.68246 478.73836,529.10054 481,531.36218 C 484.32819,534.69037 489.45362,534.24878 493,533.36218 C 496.68411,532.44115 497.75372,537.30061 502,538.36218 C 506.58342,539.50804 503.56121,543.11736 502,549.36218 C 500.65614,554.73764 510.86492,549.92972 512,549.36218 C 516.03699,547.34369 521.9735,548.87543 525,547.36218 C 529.54937,545.0875 534.56414,541.60999 537,538.36218 C 540.18852,534.11082 541.93671,532.48877 544,528.36218 C 546.31439,523.73341 546.94376,519.081 546,514.36218 z "
     style="opacity:0.6;fill:#6c5353;fill-rule:evenodd;stroke:#000000;stroke-width:1px;stroke-linecap:butt;stroke-linejoin:miter;stroke-opacity:1" /><path
     id="path5227"
     d="M 551,545.36218 C 553.24103,540.88012 551.21537,555.5007 550,560.36218 C 548.78767,565.21149 547,568.16503 547,574.36218 C 547,580.95582 543.44058,580.59984 542,586.36218 C 540.86976,590.88312 535.81945,594.72329 534,598.36218 C 532.07062,602.22095 527.64236,604.38041 525,606.36218 C 521.2296,609.18998 516.6698,609.19473 512,610.36218 C 506.97559,611.61829 503.65951,611.19194 500,609.36218 C 495.94936,607.33686 492.08789,599.08191 491,596.36218 C 489.46725,592.53031 486.09696,589.45914 485,588.36218 C 482.14189,585.50407 478.76174,581.40912 478,578.36218 C 476.83386,573.69762 477,569.77989 477,564.36218 C 477,556.44061 479.32094,558.68312 483,562.36218 C 485.9522,565.31438 490.96446,566.84441 494,568.36218 C 498.50078,570.61257 502.28355,570.36218 508,570.36218 C 513.89542,570.36218 515.49611,568.8583 519,572.36218 C 520.20008,573.56226 517.46715,574.12861 513,576.36218 C 508.01274,578.85581 505.72601,578.91017 503,584.36218 C 500.80718,588.74782 506.63587,589.36218 511,589.36218 C 517.46189,589.36218 518.79414,585.96511 524,583.36218 C 529.28149,580.72144 534.07444,576.26292 537,572.36218 C 539.61306,568.87811 540.91481,564.70293 542,560.36218 C 544.21423,551.50526 542.9143,551.83074 551,545.36218 z "
     style="opacity:0.6;fill:#6c5353;fill-rule:evenodd;stroke:#000000;stroke-width:1px;stroke-linecap:butt;stroke-linejoin:miter;stroke-opacity:1" /><path
     id="path5229"
     d="M 543,591.36218 C 544.87563,583.85965 543.14545,583.93491 548,586.36218 C 551.3977,588.06103 549.32749,600.05223 549,601.36218 C 547.62937,606.84469 545.08914,609.18389 543,613.36218 C 540.10491,619.15236 538.38211,621.51937 537,623.36218 C 534.87243,626.19894 532.87724,632.60771 531,636.36218 C 529.16514,640.0319 525.57566,641.78653 523,644.36218 C 519.60428,647.75791 516.40122,647.46249 512,646.36218 C 508.85298,645.57543 504.82962,641.1918 502,638.36218 C 498.57751,634.93969 497.39385,632.75603 494,629.36218 C 490.26661,625.62879 490,622.63286 490,616.36218 C 490,612.29333 484.81965,610.00147 483,606.36218 C 479.73722,599.83663 485.8352,596.52699 486,596.36218 C 489.37474,592.98744 490.84247,604.73207 492,609.36218 C 492.83715,612.71079 497.56322,616.48862 499,619.36218 C 500.97037,623.30292 502.0667,626.62897 503,630.36218 C 503.53686,632.50964 514.94784,631.36218 517,631.36218 C 521.75333,631.36218 525.48391,625.2412 529,624.36218 C 531.63272,623.704 537.18275,613.45185 538,612.36218 C 541.74766,607.3653 543.26707,606.29389 545,599.36218 C 545.67887,596.64672 543.87677,593.5541 543,591.36218 z "
     style="opacity:0.6;fill:#6c5353;fill-rule:evenodd;stroke:#000000;stroke-width:1px;stroke-linecap:butt;stroke-linejoin:miter;stroke-opacity:1" /><path
     id="path5233"
     d="M 300,178.36218 C 303.83689,179.39586 310.9123,175.40603 315,173.36218 C 318.26355,171.73041 321.00599,167.3562 323,165.36218 C 326.42524,161.93694 337.4816,165.8585 340,166.36218 C 343.699,167.10198 347.15716,169.15147 352,170.36218 C 356.14109,171.39746 359.56319,170.36218 365,170.36218 C 369.72676,170.36218 369.18908,166.36218 376,166.36218 C 383.01489,166.36218 384.90158,169.53837 390,173.36218 C 394.1417,176.46846 396.03093,177.11991 401,178.36218 C 405.76245,179.5528 403.07702,186.67028 404,190.36218 C 405.38373,195.89709 402.43717,200.48785 401,203.36218 C 397.21788,210.92643 409.62326,212.20637 401,214.36218 C 395.17213,215.81915 392.49579,219.86639 389,223.36218 C 385.77568,226.58651 386,229.76329 386,235.36218 C 386,240.88407 383.17731,241.00756 381,245.36218 C 377.82378,251.71462 377.10659,253.69213 382,257.36218 C 384.89427,259.53289 378.54758,266.62427 378,269.36218 C 377.18688,273.42778 379.02407,278.41032 381,282.36218 C 383.26322,286.88863 381.36753,291.62713 379,296.36218 C 376.97578,300.41061 385.17657,301.00904 382,307.36218 C 379.96059,311.441 380,317.1591 380,320.36218 C 380,323.91043 383.93852,328.3007 387,331.36218 C 387.5313,331.89348 383.51677,340.39573 385,343.36218 C 387.39077,348.14372 389.21064,349.15154 385,353.36218 C 382.28131,356.08087 384.52677,362.83541 381,366.36218 C 376.40688,370.95531 378.62713,372.8707 380,378.36218 C 381.32032,383.64344 383.42653,386.93566 379,391.36218 C 375.94472,394.41746 375.57525,397.78693 373,400.36218 C 369.90704,403.45514 365.84923,405.51296 363,408.36218 C 359.42846,411.93372 362.93586,415.10561 364,419.36218 C 365.10122,423.76707 364.85933,428.92486 364,432.36218 C 362.78111,437.23776 363,442.18285 363,447.36218 C 363,451.08344 358.24475,455.3832 357,460.36218 C 356.08969,464.00344 351.91743,469.69245 351,473.36218 C 349.87686,477.85473 341.77849,470.06683 339,466.36218 C 335.9733,462.32658 337,455.41606 337,450.36218 C 337,445.36218 337,440.36218 337,435.36218 C 337,430.02885 337,424.69552 337,419.36218 C 337,414.36218 337,409.36218 337,404.36218 C 337,399.78939 335.08008,399.44227 332,396.36218 C 327.56679,391.92897 327,389.93226 327,382.36218 C 327,380.8248 321.88626,374.13471 321,372.36218 C 319.26807,368.89833 318.67728,361.0713 318,358.36218 C 316.66724,353.03114 316.45819,351.52941 318,345.36218 C 319.11502,340.90212 321.66997,338.68231 323,333.36218 C 324.43841,327.60852 317.78823,326.20928 319,321.36218 C 320.9529,313.55059 327.35304,313.77434 325,304.36218 C 323.38778,297.91331 320.31116,297.11752 322,290.36218 C 323.57778,284.05105 320.93211,286.4527 327,278.36218 C 330.89362,273.17069 331,267.87021 331,261.36218 C 331,256.09529 330,250.81591 330,249.36218 C 330,242.52751 336.81104,246.98427 333,239.36218 C 330.18456,233.73131 324.84657,231.74847 324,228.36218 C 322.65152,222.96825 320.88678,220.24897 318,217.36218 C 313.99503,213.35722 309.57016,214.50249 307,209.36218 C 304.889,205.14018 301.00384,200.37755 300,196.36218 C 298.73922,191.31904 296.82026,186.31153 300,178.36218 z "
     style="opacity:0.6;fill:#916f6f;fill-rule:evenodd;stroke:#000000;stroke-width:1px;stroke-linecap:butt;stroke-linejoin:miter;stroke-opacity:1" /><path
     id="path5235"
     d="M 263.73588,154.06995 C 263.39189,153.38197 252.94079,155.06995 248.73588,155.06995 C 242.14437,155.06995 238.92142,156.97718 234.73588,159.06995 C 230.59993,161.13793 231.73588,165.15321 231.73588,171.06995 C 231.73588,175.38994 238.90618,178.94768 241.73588,181.06995 C 245.05144,183.55662 248.25863,186.46202 251.73588,189.06995 C 256.87691,192.92572 255.89964,195.7027 262.73588,197.06995 C 269.00255,198.32329 274.69869,197.81066 279.73588,199.06995 C 284.08889,200.1582 289.6582,203.03111 293.73588,205.06995 C 298.00618,207.2051 301.65194,208.06995 303.73588,208.06995 C 308.08201,208.06995 303.78997,199.28632 302.73588,195.06995 C 301.45174,189.93339 301.52555,184.91129 302.73588,180.06995 C 303.2767,177.90667 291.49813,177.26052 290.73588,177.06995 C 285.6787,175.80566 280.58402,176.28199 275.73588,175.06995 C 271.83207,174.094 269.9784,170.69121 266.73588,169.06995 C 262.81713,167.11058 262.74324,159.03313 263.73588,154.06995 z "
     style="opacity:0.6;fill:#6c5353;fill-rule:evenodd;stroke:#000000;stroke-width:1px;stroke-linecap:butt;stroke-linejoin:miter;stroke-opacity:1" /><path
     id="path5237"
     d="M 209.73588,193.06995 C 207.42358,191.9138 199.43195,197.37388 197.73588,199.06995 C 194.37044,202.43539 191.73588,200.81179 191.73588,208.06995 C 191.73588,212.24539 194.40266,217.95899 196.73588,221.06995 C 200.2304,225.72931 203.6887,227.02277 206.73588,230.06995 C 211.36885,234.70292 214.65128,238.02765 220.73588,241.06995 C 225.47853,243.44128 229.05523,246.3893 232.73588,250.06995 C 236.16297,253.49705 244.96935,254.11665 249.73588,255.06995 C 250.3896,255.2007 251.06921,255.06995 251.73588,255.06995 C 257.15391,255.06995 263.79329,257.59866 266.73588,259.06995 C 270.53018,260.9671 274.67707,264.06995 280.73588,264.06995 C 286.04442,264.06995 290.83429,264.05027 295.73588,263.06995 C 300.80216,262.0567 303.60884,261.06995 309.73588,261.06995 C 312.45414,261.06995 318.25906,257.93916 321.73588,257.06995 C 327.21847,255.6993 328.17625,254.1892 330.73588,249.06995 C 333.57334,243.39504 329.27531,238.95481 325.73588,238.06995 C 321.10299,236.91173 314.84919,240.29163 311.73588,241.06995 C 305.60231,242.60334 301.80485,243.06995 295.73588,243.06995 C 290.24338,243.06995 283.98132,241.38131 278.73588,240.06995 C 273.30512,238.71226 269.25939,238.06995 263.73588,238.06995 C 260.16611,238.06995 253.50319,235.45361 250.73588,234.06995 C 245.44282,231.42342 243.73501,232.06909 238.73588,227.06995 C 235.19771,223.53178 230.94053,220.17228 226.73588,218.06995 C 221.28153,215.34278 217.65158,213.5278 212.73588,211.06995 C 207.8485,208.62626 207.86771,201.54264 208.73588,198.06995 C 209.14811,196.42103 209.40255,194.73662 209.73588,193.06995 z "
     style="opacity:0.6;fill:#6c5353;fill-rule:evenodd;stroke:#000000;stroke-width:1px;stroke-linecap:butt;stroke-linejoin:miter;stroke-opacity:1" /><path
     id="path5239"
     d="M 183.73588,238.06995 C 185.84968,229.61476 174.04374,233.91602 171.73588,235.06995 C 168.42271,236.72654 167.74763,243.02295 166.73588,247.06995 C 165.64572,251.43061 166.73588,257.54849 166.73588,262.06995 C 166.73588,267.7069 171.45312,270.78719 174.73588,274.06995 C 177.17519,276.50926 180.27172,285.14163 181.73588,288.06995 C 183.91406,292.42631 190.47785,295.87643 194.73588,299.06995 C 198.96744,302.24362 204.37657,303.06995 209.73588,303.06995 C 214.66325,303.06995 221.0485,305.14811 224.73588,306.06995 C 229.25609,307.2 233.59551,309.03486 237.73588,310.06995 C 242.97434,311.37957 247.80347,310.10375 251.73588,312.06995 C 255.47222,313.93812 262.28132,313.06995 266.73588,313.06995 C 271.07345,313.06995 274.98818,311.06995 280.73588,311.06995 C 285.40255,311.06995 290.06921,311.06995 294.73588,311.06995 C 299.04519,311.06995 304.22852,307.97143 308.73588,307.06995 C 310.87496,306.64214 315.70354,301.08612 317.73588,300.06995 C 323.83732,297.01923 324.54974,296.81453 325.73588,292.06995 C 327.29027,285.85238 326.86351,281.06995 320.73588,281.06995 C 315.52086,281.06995 310.28811,283.15578 307.73588,285.06995 C 304.41346,287.56177 295.93995,286.26894 292.73588,287.06995 C 287.47277,288.38573 283.24399,289.8159 278.73588,292.06995 C 274.37472,294.25053 267.88597,293.10747 263.73588,292.06995 C 258.6621,290.80151 253.55206,291.274 248.73588,290.06995 C 243.86247,288.8516 238.75355,290.07437 234.73588,289.06995 C 229.18134,287.68132 226.13563,287.16989 221.73588,286.06995 C 215.48835,284.50807 213.964,283.68401 208.73588,281.06995 C 203.51878,278.4614 201.58808,275.49605 196.73588,273.06995 C 191.99836,270.70119 188.02679,267.36086 184.73588,264.06995 C 180.94626,260.28033 178.70961,255.96486 177.73588,252.06995 C 176.54398,247.30237 181.99218,242.4292 183.73588,238.06995 z "
     style="opacity:0.6;fill:#6c5353;fill-rule:evenodd;stroke:#000000;stroke-width:1px;stroke-linecap:butt;stroke-linejoin:miter;stroke-opacity:1" /><path
     id="path5241"
     d="M 162.73588,301.06995 C 162.04963,301.24152 156.73412,287.077 153.73588,299.06995 C 152.73691,303.06585 155.73588,308.69592 155.73588,314.06995 C 155.73588,320.83232 156.75709,323.11237 158.73588,327.06995 C 161.10038,331.79895 168.58606,337.70759 171.73588,340.06995 C 174.7514,342.33159 180.97885,345.8807 185.73588,347.06995 C 190.74099,348.32123 195.7479,349.82296 200.73588,351.06995 C 205.56158,352.27638 211.43057,356.9173 215.73588,359.06995 C 220.4358,361.41991 224.80237,363.06995 230.73588,363.06995 C 235.22297,363.06995 240.65746,364.06995 245.73588,364.06995 C 251.3524,364.06995 256.11016,364.38281 260.73588,362.06995 C 265.29757,359.78911 270.52677,361.12223 274.73588,360.06995 C 279.62772,358.84699 284.86322,358.28812 289.73588,357.06995 C 294.00715,356.00213 297.73548,353.32025 300.73588,351.06995 C 304.71468,348.08585 307.5685,347.1118 311.73588,346.06995 C 318.7077,344.327 318.86077,346.57038 320.73588,339.06995 C 322.67673,331.30656 320.81088,331.14495 318.73588,329.06995 C 318.32345,328.65752 307.4044,332.65282 305.73588,333.06995 C 302.39644,333.90481 296.20406,336.83586 293.73588,338.06995 C 288.84966,340.51306 286.95772,341.95903 282.73588,344.06995 C 280.30499,345.2854 269.53735,342.52032 267.73588,342.06995 C 263.37522,340.97979 257.25734,342.06995 252.73588,342.06995 C 249.36034,342.06995 243.55802,341.06995 238.73588,341.06995 C 233.73588,341.06995 228.73588,341.06995 223.73588,341.06995 C 217.95763,341.06995 213.90836,340.15619 209.73588,338.06995 C 204.81158,335.6078 200.0815,336.74276 194.73588,334.06995 C 190.44881,331.92642 186.17441,330.17959 181.73588,329.06995 C 177.64385,328.04694 173.19875,325.53283 170.73588,323.06995 C 167.57087,319.90494 166.14356,316.47763 162.73588,313.06995 C 161.96484,312.29891 162.73588,301.22242 162.73588,301.06995 z "
     style="opacity:0.6;fill:#6c5353;fill-rule:evenodd;stroke:#000000;stroke-width:1px;stroke-linecap:butt;stroke-linejoin:miter;stroke-opacity:1" /><path
     id="path5243"
     d="M 154.73588,363.06995 C 152.3896,360.72367 150.74741,352.09301 148.73588,348.06995 C 146.13025,342.85869 142.70127,349.2084 141.73588,353.06995 C 140.65762,357.38299 142.02523,364.22735 142.73588,367.06995 C 144.07729,372.43559 146.46748,374.99633 147.73588,380.06995 C 149.19387,385.90192 153.40875,388.4157 155.73588,393.06995 C 157.58487,396.76793 160.61951,402.04086 164.73588,403.06995 C 169.30788,404.21295 171.95722,408.18062 175.73588,410.06995 C 181.20023,412.80213 184.73035,416.06857 188.73588,417.06995 C 192.53317,418.01928 196.76,420.08201 200.73588,422.06995 C 205.83115,424.61759 210.84579,425.62491 215.73588,428.06995 C 219.30739,429.85571 225.28701,429.93217 228.73588,429.06995 C 231.85165,428.29101 239.87178,430.06995 243.73588,430.06995 C 246.60206,430.06995 254.34224,425.42741 257.73588,424.06995 C 264.03915,421.54865 266.08718,419.48213 271.73588,418.06995 C 276.13692,416.96969 279.24317,414.19313 283.73588,413.06995 C 286.50893,412.37669 291.2584,405.92807 293.73588,404.06995 C 298.59567,400.42511 299.59339,396.17682 303.73588,393.06995 C 308.30017,389.64674 309.00642,385.43468 313.73588,383.06995 C 318.18106,380.84736 322.2131,376.11552 323.73588,373.06995 C 326.46792,367.60587 326.08634,365.42041 322.73588,362.06995 C 318.96911,358.30318 314.49474,364.31109 312.73588,366.06995 C 309.76934,369.03649 305.42119,373.38464 302.73588,376.06995 C 300.60988,378.19595 294.41406,381.23086 290.73588,383.06995 C 285.73475,385.57052 284.98829,387.94375 280.73588,390.06995 C 276.68824,392.09377 274.32016,394.38174 270.73588,397.06995 C 269.04387,398.33896 266.72631,404.57234 260.73588,406.06995 C 256.42562,407.14752 253.70994,409.06995 247.73588,409.06995 C 242.23011,409.06995 236.52363,408.06995 230.73588,408.06995 C 226.87802,408.06995 221.50358,407.01188 217.73588,406.06995 C 213.5282,405.01803 207.26963,402.72026 203.73588,400.06995 C 201.98705,398.75833 189.07541,397.90484 185.73588,397.06995 C 179.34495,395.47222 178.66699,392.55273 172.73588,391.06995 C 171.03199,390.64398 165.58458,381.91865 163.73588,380.06995 C 159.44845,375.78252 159.91706,373.25113 155.73588,369.06995 C 154.30216,367.63623 155.06921,365.06995 154.73588,363.06995 z "
     style="opacity:0.6;fill:#6c5353;fill-rule:evenodd;stroke:#000000;stroke-width:1px;stroke-linecap:butt;stroke-linejoin:miter;stroke-opacity:1" /><path
     id="path5245"
     d="M 150.73588,410.06995 C 149.32512,408.65919 146.08976,400.77771 144.73588,398.06995 C 142.77515,394.1485 143.79923,406.81654 142.73588,411.06995 C 141.18481,417.27424 142.44073,420.47965 144.73588,425.06995 C 146.8054,429.209 148.65005,434.72663 149.73588,439.06995 C 150.77869,443.24121 154.9693,449.38118 157.73588,453.06995 C 161.50997,458.10208 164.46502,458.79909 167.73588,462.06995 C 170.75026,465.08433 176.29137,468.62545 179.73588,472.06995 C 183.4098,475.74387 187.84782,478.09794 191.73588,479.06995 C 196.82234,480.34157 200.9975,480.88536 205.73588,482.06995 C 210.84036,483.34607 215.5428,483.02168 219.73588,484.06995 C 225.16231,485.42656 228.81135,482.05108 232.73588,481.06995 C 236.81142,480.05107 241.38261,474.15827 245.73588,473.06995 C 250.49715,471.87963 252.87975,470.92608 255.73588,468.06995 C 259.15428,464.65155 260.42912,462.72334 265.73588,460.06995 C 269.92801,457.97389 274.24628,455.55955 277.73588,452.06995 C 281.76532,448.04052 286.42897,446.37686 289.73588,443.06995 C 293.00634,439.7995 296.46102,437.34482 300.73588,433.06995 C 303.47743,430.3284 307.2356,425.82009 310.73588,424.06995 C 316.52139,421.1772 318.96208,422.16516 320.73588,415.06995 C 321.57351,411.71944 325.99771,409.5463 327.73588,406.06995 C 330.52156,400.4986 327.65454,396.90727 325.73588,393.06995 C 322.42044,386.43907 317.35858,395.10292 314.73588,397.06995 C 310.07568,400.5651 306.53777,403.21853 302.73588,406.06995 C 299.33281,408.62225 298.99425,412.81159 295.73588,416.06995 C 292.62072,419.18512 287.30728,419.28425 283.73588,421.06995 C 279.46929,423.20325 275.67604,423.04003 271.73588,421.06995 C 268.4152,419.40961 262.71891,425.07844 260.73588,426.06995 C 256.20519,428.3353 249.81222,431.05087 245.73588,432.06995 C 241.42144,433.14856 244.72474,441.09224 242.73588,445.06995 C 240.7287,449.08431 232.80432,450.01862 228.73588,453.06995 C 225.18627,455.73216 222.72499,458.08084 219.73588,461.06995 C 217.83042,462.97541 206.6593,460.55081 204.73588,460.06995 C 198.90897,458.61323 195.99109,456.32516 191.73588,452.06995 C 189.43025,449.76432 182.10335,448.06995 177.73588,448.06995 C 172.84095,448.06995 167.33101,442.86752 163.73588,441.06995 C 159.32869,438.86636 158.106,434.02015 155.73588,430.06995 C 152.43849,424.57431 148.71206,423.02231 146.73588,419.06995 C 145.09742,415.79303 149.49289,411.62369 150.73588,410.06995 z "
     style="opacity:0.6;fill:#6c5353;fill-rule:evenodd;stroke:#000000;stroke-width:1px;stroke-linecap:butt;stroke-linejoin:miter;stroke-opacity:1" /><path
     id="path5247"
     d="M 154.73588,460.06995 C 152.7297,456.0576 153.33398,448.42043 146.73588,450.06995 C 141.98495,451.25769 145.05622,458.35129 145.73588,461.06995 C 146.93977,465.88551 147.66692,470.79413 148.73588,475.06995 C 150.15595,480.75024 150.58396,483.76612 152.73588,488.06995 C 155.12789,492.85397 157.97563,494.54946 160.73588,500.06995 C 163.35717,505.31253 162.82675,507.2517 164.73588,511.06995 C 166.48986,514.57792 171.09239,517.42646 173.73588,520.06995 C 177.65162,523.98569 180.44684,526.78091 183.73588,530.06995 C 187.08997,533.42404 191.06528,534.9023 195.73588,536.06995 C 200.36969,537.2284 204.17735,538.06995 209.73588,538.06995 C 216.47887,538.06995 218.68113,536.1247 222.73588,532.06995 C 226.68122,528.12462 228.59344,523.21239 231.73588,520.06995 C 235.89728,515.90856 238.76224,514.0436 241.73588,511.06995 C 244.83239,507.97345 249.80522,506.05262 253.73588,505.06995 C 257.3371,504.16965 262.48967,498.31616 264.73588,496.06995 C 268.802,492.00383 273.66325,489.1668 276.73588,485.06995 C 278.81241,482.30125 281.85712,479.00933 285.73588,477.06995 C 289.4106,475.23259 292.60685,470.90866 294.73588,468.06995 C 298.24109,463.39634 301.27003,462.5358 304.73588,459.06995 C 308.52448,455.28135 309.0942,452.71163 312.73588,449.06995 C 317.05194,444.75389 317.41316,441.31199 321.73588,438.06995 C 325.85198,434.98288 329.24774,431.55809 331.73588,429.06995 C 335.19213,425.61371 337.76823,418.94054 338.73588,415.06995 C 340.11519,409.5527 342.27899,410.15617 338.73588,403.06995 C 336.77336,399.14492 329.29609,402.50974 326.73588,405.06995 C 323.46686,408.33898 319.34882,414.84408 317.73588,418.06995 C 316.0311,421.47951 307.88401,425.92183 304.73588,429.06995 C 301.951,431.85483 300.21364,435.11443 298.73588,438.06995 C 296.86213,441.81746 293.03102,444.77481 289.73588,448.06995 C 284.92769,452.87814 280.81628,453.98956 276.73588,458.06995 C 272.72189,462.08395 270.65341,463.84057 265.73588,465.06995 C 261.8364,466.04482 258.1549,471.23191 256.73588,474.06995 C 254.03267,479.47637 249.23173,474.69392 246.73588,474.06995 C 243.92459,473.36713 236.88345,481.20928 235.73588,482.06995 C 232.39169,484.5781 226.95632,484.06995 221.73588,484.06995 C 215.47118,484.06995 215.39197,486.6943 216.73588,492.06995 C 217.96379,496.9816 218.92371,499.31861 217.73588,504.06995 C 216.22316,510.12083 210.05971,512.74613 207.73588,515.06995 C 204.08754,518.71829 197.19718,513.93528 193.73588,513.06995 C 188.40316,511.73677 185.01804,510.71104 181.73588,509.06995 C 178.72103,507.56253 175.07371,503.18705 172.73588,500.06995 C 168.68855,494.67351 164.29597,490.19013 161.73588,485.06995 C 159.1632,479.92459 156.03537,477.26791 154.73588,472.06995 C 153.17984,465.84578 150.0323,467.90925 154.73588,460.06995 z "
     style="opacity:0.6;fill:#6c5353;fill-rule:evenodd;stroke:#000000;stroke-width:1px;stroke-linecap:butt;stroke-linejoin:miter;stroke-opacity:1" /><path
     id="path5249"
     d="M 159.73588,514.06995 C 158.47647,509.03233 155.3768,503.65972 149.73588,505.06995 C 147.58842,505.60682 148.73588,517.01779 148.73588,519.06995 C 148.73588,524.98248 149.42955,529.84465 150.73588,535.06995 C 152.23076,541.04949 157.90942,544.24349 160.73588,547.06995 C 163.11913,549.4532 165.66212,553.9962 168.73588,557.06995 C 172.81162,561.14569 176.94174,562.47435 181.73588,566.06995 C 186.64711,569.75337 191.12841,570.47182 196.73588,569.06995 C 201.45535,567.89008 207.63456,568.06995 211.73588,568.06995 C 219.19561,568.06995 219.36432,566.44151 222.73588,563.06995 C 226.93853,558.8673 230.5036,553.99909 231.73588,549.06995 C 232.81396,544.75765 237.42633,542.68905 239.73588,538.06995 C 241.93309,533.67554 249.18924,530.16324 251.73588,525.06995 C 254.05378,520.43414 255.77347,515.99477 257.73588,512.06995 C 259.87849,507.78474 263.24561,504.56023 265.73588,502.06995 C 268.86191,498.94393 269.95649,496.62872 271.73588,493.06995 C 276.21731,484.10709 264.45393,491.21093 262.73588,492.06995 C 257.80404,494.53587 255.05217,496.75366 251.73588,500.06995 C 248.135,503.67083 243.53462,507.27121 239.73588,511.06995 C 236.49019,514.31564 233.36911,518.43672 230.73588,521.06995 C 228.4156,523.39023 226.99752,528.80831 224.73588,531.06995 C 221.40769,534.39814 216.28226,533.95655 212.73588,533.06995 C 209.05177,532.14892 207.98216,537.00838 203.73588,538.06995 C 199.15246,539.21581 202.17467,542.82513 203.73588,549.06995 C 205.07974,554.44541 194.87096,549.63749 193.73588,549.06995 C 189.69889,547.05146 183.76238,548.5832 180.73588,547.06995 C 176.18651,544.79527 171.17174,541.31776 168.73588,538.06995 C 165.54736,533.81859 163.79917,532.19654 161.73588,528.06995 C 159.42149,523.44118 158.79212,518.78877 159.73588,514.06995 z "
     style="opacity:0.6;fill:#6c5353;fill-rule:evenodd;stroke:#000000;stroke-width:1px;stroke-linecap:butt;stroke-linejoin:miter;stroke-opacity:1" /><path
     id="path5251"
     d="M 154.73588,545.06995 C 152.49485,540.58789 154.52051,555.20847 155.73588,560.06995 C 156.94821,564.91926 158.73588,567.8728 158.73588,574.06995 C 158.73588,580.66359 162.2953,580.30761 163.73588,586.06995 C 164.86612,590.59089 169.91643,594.43106 171.73588,598.06995 C 173.66526,601.92872 178.09352,604.08818 180.73588,606.06995 C 184.50628,608.89775 189.06608,608.9025 193.73588,610.06995 C 198.76029,611.32606 202.07637,610.89971 205.73588,609.06995 C 209.78652,607.04463 213.64799,598.78968 214.73588,596.06995 C 216.26863,592.23808 219.63892,589.16691 220.73588,588.06995 C 223.59399,585.21184 226.97414,581.11689 227.73588,578.06995 C 228.90202,573.40539 228.73588,569.48766 228.73588,564.06995 C 228.73588,556.14838 226.41494,558.39089 222.73588,562.06995 C 219.78368,565.02215 214.77142,566.55218 211.73588,568.06995 C 207.2351,570.32034 203.45233,570.06995 197.73588,570.06995 C 191.84046,570.06995 190.23977,568.56607 186.73588,572.06995 C 185.5358,573.27003 188.26873,573.83638 192.73588,576.06995 C 197.72314,578.56358 200.00987,578.61794 202.73588,584.06995 C 204.9287,588.45559 199.10001,589.06995 194.73588,589.06995 C 188.27399,589.06995 186.94174,585.67288 181.73588,583.06995 C 176.45439,580.42921 171.66144,575.97069 168.73588,572.06995 C 166.12282,568.58588 164.82107,564.4107 163.73588,560.06995 C 161.52165,551.21303 162.82158,551.53851 154.73588,545.06995 z "
     style="opacity:0.6;fill:#6c5353;fill-rule:evenodd;stroke:#000000;stroke-width:1px;stroke-linecap:butt;stroke-linejoin:miter;stroke-opacity:1" /><path
     id="path5253"
     d="M 162.73588,589.06995 C 160.86025,581.56742 162.59043,581.64268 157.73588,584.06995 C 154.33818,585.7688 156.40839,597.76 156.73588,599.06995 C 158.10651,604.55246 160.64674,606.89166 162.73588,611.06995 C 165.63097,616.86013 167.35377,619.22714 168.73588,621.06995 C 170.86345,623.90671 172.85864,630.31548 174.73588,634.06995 C 176.57074,637.73967 180.16022,639.4943 182.73588,642.06995 C 186.1316,645.46568 189.33466,645.17026 193.73588,644.06995 C 196.8829,643.2832 200.90626,638.89957 203.73588,636.06995 C 207.15837,632.64746 208.34203,630.4638 211.73588,627.06995 C 215.46927,623.33656 215.73588,620.34063 215.73588,614.06995 C 215.73588,610.0011 220.91623,607.70924 222.73588,604.06995 C 225.99866,597.5444 219.90068,594.23476 219.73588,594.06995 C 216.36114,590.69521 214.89341,602.43984 213.73588,607.06995 C 212.89873,610.41856 208.17266,614.19639 206.73588,617.06995 C 204.76551,621.01069 203.66918,624.33674 202.73588,628.06995 C 202.19902,630.21741 190.78804,629.06995 188.73588,629.06995 C 183.98255,629.06995 180.25197,622.94897 176.73588,622.06995 C 174.10316,621.41177 168.55313,611.15962 167.73588,610.06995 C 163.98822,605.07307 162.46881,604.00166 160.73588,597.06995 C 160.05701,594.35449 161.85911,591.26187 162.73588,589.06995 z "
     style="opacity:0.6;fill:#6c5353;fill-rule:evenodd;stroke:#000000;stroke-width:1px;stroke-linecap:butt;stroke-linejoin:miter;stroke-opacity:1" /></g></svg>